<?xml version="1.0" standalone="no"?>
<!DOCTYPE svg PUBLIC "-//W3C//DTD SVG 20010904//EN"
 "http://www.w3.org/TR/2001/REC-SVG-20010904/DTD/svg10.dtd">
<svg version="1.0" xmlns="http://www.w3.org/2000/svg"
 width="1080.000000pt" height="1080.000000pt" viewBox="0 0 1080.000000 1080.000000"
 preserveAspectRatio="xMidYMid meet">

<g transform="translate(0.000000,1080.000000) scale(0.100000,-0.100000)"
fill="#000000" stroke="none">
<path d="M5310 9354 c-382 -6 -726 -12 -763 -13 l-69 -1 7 -62 c4 -35 9 -67
12 -71 3 -5 7 -29 8 -55 2 -26 22 -180 45 -342 22 -162 56 -407 75 -545 89
-650 116 -845 124 -900 9 -58 2 -85 -20 -85 -5 0 -40 -19 -77 -42 -37 -22 -83
-50 -102 -60 -53 -28 -104 -59 -114 -68 -5 -5 -26 6 -49 25 -22 19 -44 32 -50
28 -6 -3 -7 -1 -3 5 7 11 -63 59 -79 54 -5 -2 -7 0 -3 3 8 8 -92 92 -104 87
-4 -1 -8 2 -8 7 0 8 -115 102 -125 101 -3 0 -17 11 -31 25 -14 14 -37 33 -52
43 -15 9 -36 25 -47 34 -31 26 -102 82 -198 156 -48 37 -135 104 -192 150 -58
46 -110 80 -115 77 -6 -4 -9 -2 -8 3 4 14 -124 112 -136 105 -5 -3 -6 -1 -2 5
4 6 -6 19 -21 29 -15 10 -60 44 -100 75 -39 32 -76 58 -82 58 -6 0 -11 4 -11
9 0 5 -28 30 -62 55 -35 25 -78 58 -97 73 -18 16 -39 31 -46 35 -8 5 -36 -32
-85 -115 -40 -67 -73 -128 -73 -134 0 -7 -4 -13 -8 -13 -14 0 -120 -190 -113
-202 4 -7 3 -8 -5 -4 -7 5 -17 -5 -27 -26 -8 -18 -35 -64 -59 -103 -25 -38
-54 -88 -66 -110 -12 -22 -60 -105 -109 -185 -48 -80 -112 -188 -142 -240 -31
-52 -75 -128 -99 -169 -24 -41 -42 -76 -41 -79 2 -3 0 -8 -6 -11 -20 -13 -82
-123 -76 -134 4 -7 4 -9 -1 -5 -9 8 -69 -81 -61 -90 4 -3 6 -2 6 3 0 4 6 3 13
-3 12 -10 341 -158 822 -370 88 -39 216 -96 285 -127 217 -98 260 -116 272
-109 6 4 8 3 5 -3 -4 -6 8 -17 26 -24 17 -7 69 -30 115 -51 46 -21 85 -38 87
-38 2 0 36 -15 77 -34 248 -114 399 -176 409 -170 7 4 9 3 6 -3 -4 -6 8 -16
26 -23 17 -7 58 -26 90 -42 33 -15 63 -25 68 -22 5 3 9 1 9 -4 0 -5 15 -15 33
-23 17 -7 64 -27 103 -45 40 -18 105 -47 145 -65 l74 -32 45 25 c25 14 64 35
87 48 23 13 39 28 36 33 -3 6 -1 7 5 3 15 -9 293 154 285 167 -3 6 -1 7 6 3
14 -9 502 274 494 288 -3 5 -1 6 5 2 7 -4 32 6 58 21 93 56 120 72 152 87 21
10 31 20 26 27 -5 8 -3 9 5 5 7 -5 21 0 33 11 11 10 21 17 22 15 0 -2 9 0 18
3 10 4 15 12 11 18 -3 5 -2 7 4 4 5 -4 50 17 99 45 113 64 126 73 117 82 -4 4
0 4 9 1 22 -9 30 7 33 73 2 31 6 64 8 72 3 8 21 175 42 370 35 343 99 949 205
1936 27 259 50 474 50 478 0 8 -193 6 -1060 -10z"/>
</g>
</svg>
